<?xml version="1.0" standalone="no"?>
<!DOCTYPE svg PUBLIC "-//W3C//DTD SVG 20010904//EN"
 "http://www.w3.org/TR/2001/REC-SVG-20010904/DTD/svg10.dtd">
<svg version="1.0" xmlns="http://www.w3.org/2000/svg"
 width="2128.000000pt" height="2128.000000pt" viewBox="0 0 2128.000000 2128.000000"
 preserveAspectRatio="xMidYMid meet">
<metadata>
Created by potrace 1.11, written by Peter Selinger 2001-2013
</metadata>
<g transform="translate(0.000000,2128.000000) scale(0.100000,-0.100000)"
fill="#000000" stroke="none">
<path d="M10280 21273 c-2850 -103 -5478 -1298 -7421 -3376 -2093 -2238 -3111
-5263 -2804 -8332 210 -2096 1042 -4087 2384 -5705 404 -487 931 -1014 1421
-1421 1111 -922 2431 -1621 3826 -2023 1918 -553 3990 -553 5908 0 1980 571
3759 1714 5109 3282 1861 2162 2767 4941 2542 7797 -226 2852 -1588 5478
-3800 7325 -1680 1403 -3764 2252 -5950 2425 -378 30 -863 41 -1215 28z m995
-143 c710 -48 1317 -143 1970 -310 1253 -319 2440 -871 3495 -1625 1113 -796
2076 -1817 2800 -2969 880 -1401 1416 -2985 1565 -4626 32 -356 39 -530 39
-960 0 -430 -7 -604 -39 -960 -182 -2002 -936 -3907 -2179 -5499 -521 -668
-1160 -1307 -1829 -1829 -1388 -1083 -3013 -1795 -4747 -2081 -585 -96 -1073
-135 -1710 -135 -430 0 -604 7 -960 39 -2279 207 -4432 1159 -6130 2712 -202
185 -572 559 -741 748 -1341 1506 -2213 3325 -2538 5295 -96 585 -135 1074
-135 1710 0 638 39 1126 135 1710 325 1970 1197 3789 2538 5295 169 189 539
563 741 748 1787 1634 4064 2597 6475 2737 99 6 216 12 260 14 142 6 835 -3
990 -14z"/>
<path d="M10120 20070 l0 -90 200 0 200 0 0 -475 0 -475 115 0 115 0 0 475 0
475 195 0 195 0 0 90 0 90 -510 0 -510 0 0 -90z"/>
<path d="M11332 20064 c-7 -48 -10 -89 -9 -90 2 -2 87 -14 190 -27 103 -13
190 -26 194 -30 3 -4 -19 -215 -51 -468 -32 -254 -54 -465 -49 -469 12 -11
205 -32 213 -23 4 4 32 215 64 467 31 253 59 462 61 464 2 3 80 -5 174 -17
240 -30 216 -36 229 62 6 45 8 85 4 88 -4 3 -216 32 -472 63 -256 31 -481 60
-501 63 l-36 5 -11 -88z"/>
<path d="M9480 20087 c-179 -22 -326 -40 -327 -41 -3 -2 135 -1117 139 -1121
4 -5 730 83 736 89 3 4 -17 169 -22 174 -2 1 -111 -11 -244 -28 -133 -16 -248
-30 -255 -30 -16 0 -55 287 -41 299 5 4 112 20 239 35 126 15 231 29 232 30 6
6 -20 176 -27 176 -12 0 -414 -50 -445 -55 l-31 -5 -17 137 c-9 76 -13 141 -9
144 4 4 117 19 251 35 l243 28 -7 81 c-4 44 -9 83 -11 87 -8 13 -60 8 -404
-35z"/>
<path d="M8475 19922 c-135 -40 -238 -125 -271 -224 -34 -104 3 -248 82 -317
58 -52 131 -81 297 -122 181 -45 210 -57 237 -102 60 -97 -23 -185 -182 -195
-84 -5 -137 5 -236 45 -35 14 -65 23 -68 20 -4 -3 26 -143 42 -199 11 -39 253
-65 366 -39 134 31 230 95 285 189 21 36 28 61 31 126 5 100 -21 178 -81 243
-56 61 -139 97 -314 137 -165 38 -200 52 -232 92 -42 53 -17 115 62 156 61 32
206 36 307 10 41 -11 77 -18 78 -17 2 2 -6 46 -18 98 -14 65 -27 98 -38 103
-9 4 -78 9 -152 10 -107 3 -147 0 -195 -14z"/>
<path d="M12685 19907 c-145 -48 -224 -165 -212 -312 9 -118 52 -178 241 -339
155 -132 181 -180 137 -252 -40 -65 -153 -71 -263 -12 -39 20 -92 62 -140 111
l-77 78 -10 -38 c-5 -21 -18 -69 -27 -106 l-17 -68 29 -30 c51 -53 157 -117
239 -145 62 -21 100 -27 170 -28 121 -1 181 20 250 88 72 71 99 142 93 251 -7
126 -48 188 -217 324 -169 137 -200 185 -165 250 54 101 236 63 399 -81 29
-27 55 -48 57 -48 3 0 15 45 28 99 l23 99 -29 25 c-49 43 -129 87 -206 114
-88 31 -239 41 -303 20z"/>
<path d="M7735 19713 c-55 -20 -101 -37 -102 -38 -1 0 38 -111 88 -245 50
-135 106 -290 125 -345 56 -159 48 -241 -34 -323 -59 -59 -142 -94 -232 -99
-67 -4 -81 -2 -130 24 -38 19 -65 42 -85 73 -17 26 -83 189 -149 370 -66 179
-123 329 -127 334 -10 12 -209 -63 -209 -78 0 -22 241 -671 267 -718 32 -58
101 -130 157 -163 180 -105 490 -48 680 126 99 90 142 217 125 363 -5 41 -43
160 -104 328 -53 144 -110 300 -127 346 -16 45 -33 82 -36 81 -4 0 -52 -16
-107 -36z"/>
<path d="M14193 19376 c-156 -36 -280 -126 -366 -269 -110 -181 -110 -421 1
-592 102 -159 312 -284 527 -315 82 -11 186 -13 200 -2 11 7 85 167 85 183 0
5 -55 9 -123 9 -138 0 -208 14 -304 60 -83 41 -153 106 -194 182 -32 60 -34
68 -34 163 0 88 3 107 27 158 60 128 183 215 318 225 156 11 337 -81 462 -234
l53 -66 37 81 c59 127 60 116 -30 203 -96 92 -187 147 -310 188 -113 38 -252
48 -349 26z"/>
<path d="M6433 19188 c-51 -29 -93 -55 -93 -60 0 -5 49 -99 109 -209 108 -197
109 -200 88 -213 -47 -29 -469 -256 -475 -256 -4 0 -54 88 -112 196 -58 107
-108 199 -111 205 -3 5 -51 -16 -107 -46 l-102 -56 24 -42 c13 -23 133 -242
266 -487 133 -245 246 -449 251 -454 8 -9 132 49 181 85 l22 17 -107 196 c-59
108 -108 201 -109 206 -2 6 107 71 242 145 194 106 247 132 255 121 6 -7 57
-99 114 -205 81 -148 108 -190 120 -186 44 17 181 97 181 106 0 14 -532 989
-539 989 -3 -1 -48 -24 -98 -52z"/>
<path d="M15073 18452 c-271 -196 -493 -359 -493 -362 0 -3 45 -33 100 -67
l99 -62 119 88 118 88 198 -122 c108 -67 202 -127 208 -133 7 -7 4 -51 -11
-153 -12 -78 -20 -143 -19 -144 2 -2 48 -30 103 -64 95 -59 100 -61 103 -39
32 222 162 1184 162 1196 0 11 -36 38 -92 72 -50 30 -94 56 -97 57 -3 1 -228
-159 -498 -355z m424 -149 c-18 -116 -35 -214 -39 -218 -4 -4 -70 32 -147 80
l-141 87 177 134 c97 73 178 133 179 131 1 -1 -12 -97 -29 -214z"/>
<path d="M5280 18470 c-94 -28 -218 -93 -294 -156 -300 -248 -329 -632 -66
-894 116 -117 234 -165 400 -162 237 3 497 175 617 408 l37 71 -60 81 c-32 45
-62 81 -66 82 -4 0 -20 -24 -34 -52 -45 -90 -94 -161 -147 -216 -181 -186
-426 -204 -585 -42 -183 185 -143 453 89 611 88 60 172 91 302 114 47 8 46 10
-25 105 -60 79 -62 80 -168 50z"/>
<path d="M16055 17864 c-187 -223 -350 -419 -363 -434 l-23 -29 83 -70 c46
-39 85 -71 88 -71 3 0 118 134 255 299 l250 299 3 -513 2 -513 71 -62 c39 -33
75 -60 79 -58 13 5 720 852 720 863 0 8 -96 93 -150 132 -15 11 -48 -25 -261
-279 l-244 -292 -6 180 c-4 98 -7 325 -8 504 l-1 325 -75 63 c-41 34 -76 62
-77 62 -2 0 -156 -183 -343 -406z"/>
<path d="M10280 18170 c-1337 -61 -2588 -454 -3712 -1166 -976 -617 -1828
-1490 -2420 -2479 -621 -1039 -962 -2120 -1060 -3365 -15 -200 -15 -840 0
-1040 52 -658 165 -1239 353 -1816 822 -2524 2927 -4441 5509 -5018 1482 -331
3046 -209 4440 346 1294 515 2423 1380 3257 2496 1190 1590 1696 3559 1427
5551 -266 1977 -1338 3791 -2952 4998 -1164 871 -2537 1381 -3992 1482 -211
15 -648 21 -850 11z m830 -141 c1793 -125 3459 -881 4723 -2144 1714 -1712
2479 -4106 2076 -6495 -335 -1985 -1494 -3772 -3181 -4903 -1521 -1021 -3356
-1438 -5178 -1177 -2607 373 -4826 2120 -5818 4580 -602 1495 -693 3179 -256
4743 623 2232 2269 4052 4434 4904 1002 395 2123 567 3200 492z"/>
<path d="M10631 16623 c-23 -71 -124 -382 -225 -693 l-184 -565 -731 -5 -732
-5 590 -429 c325 -236 591 -429 591 -430 0 0 -101 -311 -224 -691 -124 -379
-223 -691 -221 -693 5 -5 -27 -28 604 431 294 214 545 395 557 403 21 14 48
-4 609 -411 322 -235 588 -425 591 -422 3 3 -393 1238 -440 1373 -3 6 262 204
587 440 l591 429 -731 3 -732 2 -101 313 c-265 815 -351 1077 -355 1077 -2 0
-22 -57 -44 -127z"/>
<path d="M6360 13450 c-117 -396 -216 -724 -220 -730 -4 -6 -277 -17 -759 -29
-414 -11 -755 -22 -758 -24 -5 -6 56 -48 750 -526 332 -229 497 -348 493 -357
-22 -57 -427 -1437 -423 -1441 3 -2 276 203 607 456 l602 461 46 -32 c26 -18
307 -211 626 -431 318 -219 580 -396 583 -393 2 2 -109 324 -247 715 -138 391
-248 715 -245 720 3 5 270 212 595 461 325 249 593 456 596 461 7 12 -44 11
-841 -10 -368 -10 -672 -14 -675 -10 -3 4 -117 327 -255 718 -137 391 -253
711 -256 711 -3 0 -101 -324 -219 -720z"/>
<path d="M14737 14134 c-346 -852 -557 -1367 -560 -1370 -4 -5 -1324 87 -1461
101 -34 4 -57 2 -55 -3 2 -5 264 -228 581 -496 526 -444 577 -489 569 -509 -5
-12 -133 -327 -285 -700 -152 -373 -276 -680 -276 -683 0 -4 7 -4 15 0 13 5
1248 769 1270 786 6 5 260 -203 590 -481 318 -269 582 -489 586 -489 7 0 -16
94 -214 897 l-144 581 641 398 c721 447 651 402 644 410 -3 3 -345 30 -759 60
-414 30 -753 56 -754 57 -1 1 -81 328 -179 727 -98 399 -182 731 -186 739 -5
9 -12 1 -23 -25z"/>
<path d="M13186 9579 c-3 -8 -106 -333 -229 -722 -124 -389 -226 -710 -228
-712 -2 -2 -345 -7 -762 -11 -416 -4 -757 -10 -757 -13 0 -3 277 -204 615
-445 338 -242 615 -442 615 -445 0 -2 -94 -302 -210 -665 -263 -830 -249 -786
-241 -786 3 0 280 203 615 450 335 247 614 446 620 443 6 -4 284 -202 619
-441 334 -239 610 -433 612 -430 3 2 -103 328 -235 723 -132 395 -238 720
-237 722 2 1 275 203 608 448 332 245 605 449 607 454 1 4 -340 7 -760 7
l-762 -1 -237 713 c-130 392 -239 716 -243 719 -3 3 -8 0 -10 -8z"/>
<path d="M7869 9520 c0 -3 -98 -331 -217 -730 l-217 -725 -665 -17 c-366 -9
-710 -17 -765 -17 -85 -1 -97 -3 -85 -15 8 -8 287 -202 620 -431 333 -230 609
-421 613 -425 5 -4 -89 -333 -208 -730 -118 -398 -214 -727 -213 -731 2 -4
271 197 598 447 327 251 600 458 607 460 6 3 292 -188 635 -425 343 -237 624
-427 626 -423 1 5 -110 329 -248 722 -138 392 -247 716 -242 719 6 3 278 211
606 461 468 357 592 456 574 459 -13 2 -355 -5 -761 -14 -406 -10 -739 -16
-741 -14 -2 2 -115 321 -251 709 -215 612 -263 742 -266 720z"/>
<path d="M3948 17413 l-77 -78 228 -562 c125 -310 230 -565 232 -568 3 -2 43
33 89 80 l83 84 -56 133 -56 133 112 113 c62 62 141 140 177 172 l66 58 132
-55 132 -55 37 30 c67 54 138 131 128 140 -15 13 -1117 452 -1135 452 -9 0
-50 -35 -92 -77z m519 -320 l93 -39 -120 -119 c-66 -65 -122 -117 -124 -114
-5 4 -139 317 -166 385 -9 23 -14 25 317 -113z"/>
<path d="M17078 16938 c-233 -204 -425 -373 -427 -374 -3 -3 56 -75 134 -162
9 -10 72 41 306 246 162 143 295 259 295 258 1 0 -32 -219 -72 -486 -41 -267
-74 -496 -74 -510 0 -29 108 -161 127 -155 16 5 843 734 843 743 0 8 -130 156
-141 160 -4 2 -135 -109 -291 -246 -156 -138 -284 -247 -286 -243 -1 4 29 225
68 490 38 266 70 488 70 495 0 6 -30 44 -65 84 l-64 72 -423 -372z"/>
<path d="M3414 16784 c-124 -66 -213 -155 -272 -273 -34 -70 -37 -81 -37 -165
0 -105 16 -147 77 -208 54 -54 112 -80 189 -86 92 -6 148 8 315 84 169 77 216
87 268 55 76 -47 68 -135 -20 -231 -59 -63 -131 -103 -241 -135 l-75 -22 79
-65 c43 -35 84 -68 91 -72 7 -4 49 10 100 35 70 34 102 57 168 123 91 92 130
160 147 259 40 238 -181 422 -424 351 -30 -9 -115 -44 -189 -79 -168 -79 -216
-86 -264 -39 -77 78 17 224 204 318 52 26 96 49 98 51 5 4 -145 125 -156 125
-5 0 -31 -12 -58 -26z"/>
<path d="M2845 16028 c-103 -58 -204 -170 -257 -285 -41 -87 -51 -207 -23
-280 43 -112 155 -187 280 -186 92 0 157 24 314 117 69 42 141 80 159 87 77
26 157 -27 157 -104 -1 -109 -113 -226 -278 -292 -37 -15 -67 -30 -67 -34 0
-3 41 -32 90 -64 l91 -58 67 37 c96 53 200 161 248 259 35 71 39 88 42 170 5
115 -17 172 -89 240 -74 69 -127 90 -224 89 -101 -1 -146 -18 -308 -118 -142
-86 -198 -106 -246 -86 -43 17 -64 61 -56 111 15 87 132 213 253 272 23 12 42
24 42 28 0 8 -153 109 -166 109 -5 0 -18 -6 -29 -12z"/>
<path d="M18140 15810 c-256 -48 -520 -98 -587 -110 -68 -13 -123 -26 -123
-30 0 -4 27 -49 60 -99 40 -61 66 -91 78 -91 10 0 76 12 146 26 70 14 129 24
130 22 135 -205 256 -398 256 -406 0 -7 -34 -63 -76 -126 -42 -63 -74 -120
-72 -128 6 -25 113 -188 123 -187 10 0 667 1000 673 1023 4 17 -115 196 -130
195 -7 -1 -222 -40 -478 -89z m203 -340 l-126 -190 -93 142 c-51 79 -91 144
-90 145 3 3 410 90 429 92 4 1 -50 -84 -120 -189z"/>
<path d="M18615 14820 c-275 -132 -499 -245 -497 -250 1 -6 52 -117 114 -245
130 -275 171 -333 268 -383 61 -32 70 -34 145 -30 93 4 151 28 208 85 59 58
81 115 82 205 0 43 1 78 1 78 1 0 22 -11 46 -25 62 -35 122 -41 193 -21 145
43 219 207 169 375 -23 79 -200 446 -215 448 -8 1 -239 -106 -514 -237z m495
-122 c21 -46 41 -99 45 -118 13 -74 -59 -150 -141 -150 -61 0 -116 51 -161
147 -18 39 -33 75 -33 78 0 5 236 124 248 125 2 0 21 -37 42 -82z m-409 -225
c27 -60 54 -125 58 -145 18 -78 -24 -155 -96 -179 -89 -29 -159 27 -234 187
-27 57 -49 106 -49 109 0 5 256 134 268 135 1 0 25 -48 53 -107z"/>
<path d="M2059 14788 c-27 -55 -49 -104 -47 -109 6 -18 793 -908 803 -908 11
-1 105 181 105 202 0 6 -43 59 -95 116 -53 58 -94 108 -93 112 2 4 50 104 108
222 90 183 108 215 125 212 11 -2 77 -7 147 -10 l128 -6 52 105 c29 58 50 107
48 109 -3 2 -264 14 -580 26 -316 12 -592 23 -613 25 l-38 4 -50 -100z m534
-134 c86 -4 157 -9 157 -11 0 -17 -153 -303 -159 -297 -4 5 -63 70 -131 144
-68 74 -133 146 -144 159 l-21 24 70 -6 c39 -4 141 -10 228 -13z"/>
<path d="M19060 13837 c-591 -221 -534 -183 -480 -325 29 -74 35 -83 54 -78
11 3 248 91 526 194 579 216 524 179 470 320 -17 45 -37 82 -43 81 -7 0 -244
-87 -527 -192z"/>
<path d="M1691 13972 c-6 -21 -19 -63 -30 -94 l-19 -55 153 -239 c84 -131 150
-242 147 -245 -4 -3 -122 -53 -263 -110 l-257 -104 -30 -95 c-17 -52 -27 -98
-24 -101 10 -8 1072 -342 1075 -338 7 11 68 211 65 214 -1 1 -84 28 -183 60
-99 31 -265 84 -369 117 l-190 60 237 95 c206 83 237 98 237 117 0 11 -60 113
-134 226 -73 113 -132 206 -132 207 1 1 163 -49 361 -112 198 -63 365 -115
372 -115 11 0 73 173 73 203 0 7 -207 77 -533 180 -292 92 -535 168 -539 167
-4 0 -12 -17 -17 -38z"/>
<path d="M19463 13482 c-67 -24 -118 -64 -154 -120 -39 -61 -54 -111 -88 -290
-33 -169 -52 -211 -107 -237 -85 -40 -163 37 -189 187 -9 50 11 170 40 242 13
33 23 62 20 64 -5 5 -198 -49 -209 -59 -13 -12 -35 -136 -35 -199 -1 -66 19
-164 49 -243 29 -76 112 -166 182 -198 71 -32 181 -32 252 0 138 61 185 140
226 382 28 163 38 195 76 235 44 48 84 46 134 -4 67 -66 88 -202 55 -356 -8
-38 -14 -71 -12 -72 1 -2 45 9 97 24 111 33 108 28 109 177 1 161 -42 293
-126 386 -78 87 -211 120 -320 81z"/>
<path d="M1466 11234 c-153 -37 -286 -144 -355 -286 -56 -115 -75 -219 -68
-368 6 -124 13 -155 59 -271 l30 -76 106 -6 c59 -3 108 -4 110 -3 1 2 -13 37
-32 78 -48 106 -66 161 -75 237 -11 92 3 192 38 267 113 241 429 286 611 87
66 -72 92 -142 98 -264 5 -112 -17 -207 -73 -319 -19 -38 -35 -72 -35 -75 0
-3 48 -4 108 -3 l107 3 34 84 c110 276 64 586 -114 765 -136 138 -353 198
-549 150z"/>
<path d="M20090 10880 l0 -260 -148 0 -149 0 -6 167 c-4 91 -7 199 -7 240 l0
73 -89 0 -90 0 6 -245 6 -245 -141 0 -142 0 0 78 c0 42 -3 155 -7 250 l-6 172
-87 0 -86 0 3 -302 c2 -167 6 -332 9 -367 l6 -63 176 6 c98 3 348 9 557 12
l380 6 -2 247 c-2 135 -6 301 -9 369 l-6 122 -84 0 -84 0 0 -260z"/>
<path d="M19156 10190 c-4 -25 -27 -249 -51 -499 -49 -493 -50 -471 11 -471
17 0 51 -3 76 -6 l45 -6 18 196 c10 108 23 196 28 196 5 0 214 -21 465 -46
349 -35 457 -43 462 -33 13 21 23 201 12 208 -6 4 -212 26 -459 50 -246 24
-452 47 -456 51 -5 4 0 92 11 196 10 104 19 190 18 191 -1 0 -40 5 -88 10
l-87 9 -5 -46z"/>
<path d="M1605 10034 c-233 -36 -410 -197 -470 -429 -23 -88 -21 -251 4 -348
33 -126 76 -202 161 -287 118 -118 227 -163 395 -164 258 -1 461 145 542 389
50 151 31 379 -43 527 -92 184 -271 301 -475 312 -46 2 -97 2 -114 0z m160
-235 c83 -15 144 -49 202 -112 120 -132 137 -346 37 -493 -100 -148 -326 -204
-487 -122 -133 67 -219 235 -204 396 16 164 141 298 309 331 61 12 77 12 143
0z"/>
<path d="M19037 9093 c-11 -19 -50 -203 -45 -209 4 -3 153 -41 331 -84 178
-43 342 -86 363 -95 64 -26 105 -65 131 -123 22 -47 25 -65 21 -131 -10 -168
-115 -290 -251 -291 -26 0 -201 37 -388 82 -241 57 -343 78 -348 70 -9 -15
-54 -202 -50 -207 10 -9 692 -167 744 -172 232 -21 411 130 476 403 28 119 24
270 -11 359 -29 76 -121 170 -202 208 -46 22 -281 82 -745 192 -12 3 -24 2
-26 -2z"/>
<path d="M1810 8555 c-490 -146 -515 -154 -512 -176 6 -53 54 -189 66 -189 8
0 173 47 367 104 195 58 355 104 356 102 2 -1 -58 -92 -132 -201 -74 -110
-135 -208 -135 -220 0 -18 33 -35 223 -114 122 -52 225 -97 229 -100 4 -4
-159 -55 -361 -115 l-369 -109 14 -46 c8 -25 22 -74 31 -109 13 -47 21 -61 33
-58 153 45 1056 310 1058 312 2 1 -9 45 -23 98 l-27 95 -102 44 c-55 24 -172
75 -258 112 -100 43 -155 72 -151 79 4 6 74 112 156 235 l149 224 -27 94 c-24
80 -31 93 -49 92 -12 0 -253 -70 -536 -154z"/>
<path d="M18757 7972 c-10 -15 -368 -935 -365 -937 2 0 39 -15 83 -32 l80 -31
16 36 c9 21 42 103 74 185 31 81 60 145 63 143 39 -23 866 -335 872 -329 11
12 80 196 76 201 -3 2 -195 78 -428 169 -233 90 -427 168 -432 173 -5 5 21 85
60 184 40 106 64 180 58 185 -5 5 -34 18 -64 29 -30 11 -62 23 -71 27 -10 3
-19 2 -22 -3z"/>
<path d="M2260 7210 c-267 -120 -491 -222 -498 -227 -10 -6 -3 -30 32 -108 24
-55 50 -99 56 -97 6 1 102 43 212 92 111 50 202 89 203 88 2 -2 27 -56 56
-122 60 -135 120 -210 203 -254 44 -23 62 -27 136 -26 103 1 157 22 229 89 80
75 115 188 92 296 -18 82 -201 489 -220 488 -9 0 -234 -99 -501 -219z m476
-134 c19 -41 39 -97 46 -124 10 -44 9 -55 -9 -88 -43 -83 -161 -108 -225 -48
-32 30 -125 216 -111 222 4 1 60 27 123 56 63 30 121 54 128 55 7 1 29 -33 48
-73z"/>
<path d="M18259 6799 c-27 -56 -49 -102 -47 -104 8 -7 989 -495 996 -495 6 0
102 182 102 195 0 3 -225 117 -500 255 l-500 250 -51 -101z"/>
<path d="M2690 6300 c-261 -154 -476 -284 -478 -289 -3 -8 357 -632 375 -651
6 -6 131 61 145 77 8 10 -25 73 -122 239 -82 140 -129 229 -123 235 5 5 182
111 394 235 211 124 388 229 393 234 8 8 -92 200 -104 199 -3 0 -219 -126
-480 -279z"/>
<path d="M17883 6126 c-145 -233 -263 -428 -263 -434 0 -14 129 -94 144 -89 6
3 56 76 110 164 l98 160 401 -249 c220 -136 401 -247 402 -246 8 10 115 187
115 190 0 3 -178 115 -395 249 -217 134 -395 248 -395 253 0 4 42 77 94 160
52 84 96 157 98 163 2 9 -133 104 -145 103 -1 0 -120 -191 -264 -424z"/>
<path d="M3310 5569 c-179 -126 -382 -270 -453 -319 l-127 -91 62 -89 c34 -50
66 -90 70 -90 8 0 864 597 900 627 15 13 11 22 -45 103 -34 49 -66 89 -72 89
-5 0 -156 -104 -335 -230z"/>
<path d="M17520 5528 c-30 -18 -89 -66 -131 -107 -209 -209 -209 -456 -1 -578
33 -20 63 -27 116 -31 92 -6 150 11 326 93 158 73 180 80 226 65 46 -16 74
-54 74 -102 0 -107 -125 -223 -295 -274 -33 -10 -64 -21 -68 -25 -5 -3 30 -37
78 -74 l86 -67 87 42 c69 33 101 56 162 119 104 105 142 181 148 297 4 79 3
89 -27 149 -55 112 -154 174 -277 175 -91 0 -152 -19 -295 -91 -142 -70 -197
-87 -239 -69 -131 54 -38 241 170 342 49 24 89 46 90 50 0 12 -143 118 -159
118 -9 0 -41 -15 -71 -32z"/>
<path d="M3562 4970 c-309 -103 -565 -190 -569 -193 -5 -5 45 -67 133 -166 11
-12 34 -7 150 33 113 39 139 45 149 34 6 -7 69 -80 140 -163 71 -82 137 -159
147 -170 17 -20 16 -24 -47 -154 l-65 -132 77 -90 c66 -77 79 -87 87 -72 24
43 516 1078 516 1087 0 11 -140 176 -149 175 -3 0 -259 -85 -569 -189z m447
-77 c0 -5 -44 -95 -98 -202 l-97 -193 -105 121 c-57 66 -105 125 -107 129 -1
4 87 40 195 79 217 77 213 76 212 66z"/>
<path d="M16927 4843 l-78 -77 268 -268 c221 -221 263 -268 243 -268 -14 0
-238 18 -499 41 l-474 41 -71 -71 -71 -71 397 -397 398 -398 75 75 c41 41 74
78 73 82 -2 4 -121 129 -266 278 -208 213 -259 270 -240 270 13 0 239 -20 503
-45 l480 -44 63 62 c34 34 61 67 60 74 -3 14 -766 793 -776 793 -4 0 -42 -35
-85 -77z"/>
<path d="M4306 4119 c-202 -231 -366 -422 -364 -423 2 -1 37 -32 79 -69 42
-37 80 -67 86 -67 5 0 121 128 257 285 137 157 251 284 253 281 2 -2 -1 -228
-6 -502 l-10 -499 67 -62 c37 -34 72 -61 78 -60 11 2 734 827 734 838 0 9
-152 139 -162 139 -4 0 -116 -125 -249 -277 -133 -153 -246 -282 -252 -288 -6
-6 -7 15 -4 60 4 39 8 267 9 507 l3 437 -70 60 c-39 34 -73 61 -76 61 -3 0
-171 -189 -373 -421z"/>
<path d="M15968 3963 c-45 -36 -84 -67 -86 -68 -4 -3 651 -820 683 -854 l23
-23 83 67 c46 37 84 71 84 75 0 9 -688 869 -697 869 -3 1 -44 -29 -90 -66z"/>
<path d="M5705 3520 c-159 -21 -300 -114 -394 -259 -160 -248 -104 -558 137
-756 121 -101 330 -186 454 -185 30 0 37 7 86 84 28 46 52 86 52 90 0 3 -18 6
-39 6 -79 0 -206 31 -289 71 -101 48 -186 129 -228 215 -25 52 -29 70 -29 149
0 82 3 97 33 157 40 83 109 153 182 187 48 23 68 26 156 26 96 0 103 -2 177
-38 119 -59 208 -150 302 -312 9 -15 19 -4 69 71 l59 88 -18 32 c-9 17 -39 59
-67 93 -161 200 -416 311 -643 281z"/>
<path d="M15176 3365 c-49 -13 -137 -47 -195 -76 -91 -45 -118 -65 -191 -138
-129 -130 -180 -246 -180 -411 0 -156 56 -294 164 -404 106 -106 235 -159 391
-159 148 0 294 50 430 148 76 54 183 168 215 228 l24 44 -115 201 c-63 111
-117 201 -120 202 -6 0 -334 -186 -349 -198 -7 -5 66 -135 82 -145 8 -6 39 6
86 33 40 23 74 41 76 39 1 -2 13 -22 26 -44 13 -22 31 -54 42 -71 l18 -31 -50
-51 c-62 -63 -154 -116 -240 -138 -207 -53 -403 80 -451 306 -52 244 199 478
543 507 37 3 68 8 68 11 0 2 -21 42 -47 88 l-48 84 -45 -1 c-25 0 -85 -11
-134 -24z"/>
<path d="M6611 3017 c-21 -45 -129 -269 -241 -497 -111 -228 -202 -419 -203
-424 -2 -8 637 -325 655 -326 9 0 78 134 78 150 0 6 -101 60 -225 120 -124 60
-225 112 -225 115 0 4 28 65 62 136 54 113 64 129 81 123 11 -4 106 -49 210
-100 105 -52 195 -94 201 -94 10 1 77 134 76 153 0 4 -93 53 -207 108 -114 55
-210 102 -212 105 -7 7 112 244 122 244 4 0 105 -47 224 -105 119 -58 218
-105 219 -105 7 0 74 140 74 153 0 7 -57 41 -127 74 -71 33 -217 104 -326 156
l-197 96 -39 -82z"/>
<path d="M14143 2833 c-51 -20 -93 -41 -93 -47 0 -6 61 -164 134 -351 73 -187
132 -342 130 -344 -2 -2 -196 100 -431 227 -235 127 -432 232 -438 234 -15 4
-185 -62 -185 -73 0 -9 396 -1029 402 -1035 2 -2 49 14 104 35 63 25 98 44 97
53 -2 7 -63 168 -137 358 -75 189 -134 345 -133 346 1 2 200 -105 441 -237
242 -131 442 -239 445 -239 19 0 172 67 173 75 2 21 -397 1034 -407 1034 -5 0
-52 -17 -102 -36z"/>
<path d="M7721 2523 c-12 -43 -22 -82 -22 -88 -1 -5 82 -35 183 -66 145 -44
182 -58 180 -71 -1 -9 -61 -211 -132 -449 -87 -287 -126 -435 -119 -439 17
-11 199 -63 203 -59 3 2 64 202 136 444 73 242 134 443 136 446 2 4 84 -18
181 -47 98 -30 183 -54 189 -54 12 0 61 157 51 166 -3 3 -211 67 -464 143
-252 76 -467 141 -479 145 -19 6 -23 -1 -43 -71z"/>
<path d="M12915 2403 c-49 -13 -94 -28 -98 -33 -7 -6 276 -1066 287 -1077 3
-3 206 53 211 59 8 8 -289 1078 -300 1077 -5 0 -50 -12 -100 -26z"/>
<path d="M12460 2281 c-84 -15 -95 -19 -93 -36 5 -37 113 -700 117 -719 4 -16
1 -15 -22 6 -15 14 -187 160 -383 326 l-357 301 -96 -16 c-75 -13 -96 -20 -96
-32 1 -28 176 -1081 181 -1086 3 -2 52 4 109 13 93 16 105 20 103 37 -2 11
-30 182 -62 380 -33 197 -59 360 -58 361 1 1 175 -146 386 -327 240 -205 391
-327 400 -325 9 3 51 10 94 17 42 6 77 17 77 23 0 11 -167 1034 -176 1074 -5
25 1 25 -124 3z"/>
<path d="M8765 1753 c-49 -291 -90 -539 -92 -553 -5 -25 -3 -26 103 -43 59
-10 109 -15 112 -12 3 3 20 96 39 207 45 277 36 249 86 242 80 -13 129 -52
169 -134 13 -25 50 -124 83 -220 l61 -175 117 -19 c65 -10 120 -17 123 -14 7
7 -127 401 -156 458 -12 25 -36 59 -53 77 -28 30 -29 33 -11 39 96 34 151 81
185 157 19 41 24 70 24 137 0 76 -3 91 -29 138 -67 121 -134 152 -435 203
-124 22 -229 39 -232 39 -3 0 -45 -237 -94 -527z m372 303 c111 -20 150 -41
180 -100 22 -42 9 -108 -28 -151 -45 -51 -84 -60 -191 -45 -49 7 -91 17 -94
21 -7 12 39 289 48 289 2 0 40 -7 85 -14z"/>
<path d="M11130 2111 l-65 -6 32 -515 c17 -283 32 -535 32 -559 l1 -43 113 7
c61 4 113 8 114 9 0 0 -14 244 -33 541 -18 297 -34 548 -34 558 0 18 -24 20
-160 8z"/>
<path d="M10201 2069 c-10 -24 -123 -273 -250 -552 -127 -280 -231 -510 -231
-513 0 -2 54 -3 120 -2 l121 3 56 129 57 129 155 -6 c86 -4 194 -7 241 -7 l85
0 54 -139 53 -138 116 -6 c64 -3 118 -4 120 -2 2 1 -99 257 -224 569 l-226
566 -53 0 c-28 0 -80 3 -113 6 l-62 7 -19 -44z m184 -379 c31 -80 67 -173 80
-208 l24 -62 -167 6 c-92 4 -168 8 -169 9 -2 0 36 92 84 203 47 111 88 201 89
199 2 -1 28 -68 59 -147z"/>
</g>
</svg>
